<?xml version="1.0" encoding="UTF-8"?>
<svg xmlns="http://www.w3.org/2000/svg" style="stroke-dasharray:none; shape-rendering:auto; font-family:'Arial'; text-rendering:auto; fill-opacity:1; color-interpolation:auto; color-rendering:auto; font-size:12; fill:black; stroke:black; image-rendering:auto; stroke-miterlimit:10; stroke-linecap:square; stroke-linejoin:miter; font-style:normal; stroke-width:1; stroke-dashoffset:0; font-weight:normal; stroke-opacity:1;" contentScriptType="text/ecmascript" preserveAspectRatio="xMidYMid meet" zoomAndPan="magnify" version="1.0" contentStyleType="text/css" xml:xlink="http://www.w3.org/1999/xlink" width="1780" height="631"><rect x="20" y="20" width="1760" height="611" ry="0" rx="0" style="stroke:#000000; fill:#C0C0C0" /><rect x="50" y="264" width="1730" height="122" ry="0" rx="0" style="stroke:#000000; fill:#FFFFFF" /><g componentSequence="6"><text x="-325" y="58" transform="rotate(270)" text-anchor="middle" style="font-weight:bold;font-size:10px;stroke:none; fill:#434343"><tspan dy="14" x="-325">Financeiro</tspan></text></g><rect x="50" y="508" width="1730" height="123" ry="0" rx="0" style="stroke:#000000; fill:#FFFFFF" /><g componentSequence="5"><text x="-569" y="58" transform="rotate(270)" text-anchor="middle" style="font-weight:bold;font-size:10px;stroke:none; fill:#434343"><tspan dy="14" x="-569">Gestor C. Custo</tspan></text></g><rect x="50" y="386" width="1730" height="122" ry="0" rx="0" style="stroke:#000000; fill:#FFFFFF" /><g componentSequence="4"><text x="-447" y="58" transform="rotate(270)" text-anchor="middle" style="font-weight:bold;font-size:10px;stroke:none; fill:#434343"><tspan dy="14" x="-447">Gestor de Frotas</tspan></text></g><rect x="50" y="142" width="1730" height="122" ry="0" rx="0" style="stroke:#000000; fill:#FFFFFF" /><g componentSequence="3"><text x="-203" y="58" transform="rotate(270)" text-anchor="middle" style="font-weight:bold;font-size:10px;stroke:none; fill:#434343"><tspan dy="14" x="-203">Suprimentos</tspan></text></g><rect x="50" y="20" width="1730" height="122" ry="0" rx="0" style="stroke:#000000; fill:#FFFFFF" /><g componentSequence="2"><text x="-81" y="58" transform="rotate(270)" text-anchor="middle" style="font-weight:bold;font-size:10px;stroke:none; fill:#434343"><tspan dy="14" x="-81">Solicitante</tspan></text></g><g componentSequence="1"><text x="-325" y="28" transform="rotate(270)" text-anchor="middle" style="font-weight:bold;font-size:10px;stroke:none; fill:#434343"><tspan dy="14" x="-325">Gestão de Viagens</tspan></text></g><g sequence="7"><ellipse cx="107" cy="82" rx="17" ry="17" stroke-width="1" style="fill:url(#linearGradient66FF6696FF96B6FFB6_2059999715);" stroke="336633" /></g><g sequence="8"><rect x="240" y="533" width="106" height="76" ry="5" rx="5" style="fill:url(#linearGradientF8FBFEEDF5FCDEEDFAD4E7F8E2E5E9_1947138250);" stroke="191970" /></g><g componentSequence="8"><text x="293" y="548" text-anchor="middle" style="font-weight:bold;font-size:10px;stroke:none; fill:#333399"><tspan dy="14" x="293">Aprovar</tspan><tspan dy="14" x="293">Viagem</tspan></text></g><g sequence="10"><polygon points=" 400 547 430 517 460 547 430 577 400 547" style="fill:url(#linearGradientFAFBFCFFFFCC_1882288787);" stroke="000000" /></g><g componentSequence="10"><text x="430" y="587" text-anchor="middle" style="font-weight:bold;font-size:10px;stroke:none; fill:#333399"><tspan dy="14" x="430">Aprova</tspan><tspan dy="14" x="430">?</tspan></text></g><g sequence="12"><ellipse cx="587" cy="571" rx="17" ry="17" stroke-width="3" style="fill:url(#linearGradientFF6666FF9696FFB6B6_892596977);" stroke="993333" /></g><g sequence="15"><polygon points=" 510 190 540 160 570 190 540 220 510 190" style="fill:url(#linearGradientFAFBFCFFFFCC_126350261);" stroke="000000" /></g><path style="fill:none; stroke-width:6; stroke:#000000;" d="M530.0 190.0 L550.0 190.0" /><path style="fill:none; stroke-width:6; stroke:#000000;" d="M540.0 180.0 L540.0 200.0" /><g componentSequence="15"><text x="540" y="230" text-anchor="middle" style="font-weight:bold;font-size:10px;stroke:none; fill:#333399"><tspan dy="14" x="540">Paralel</tspan><tspan dy="14" x="540">o</tspan></text></g><g sequence="17"><rect x="690" y="176" width="106" height="76" ry="5" rx="5" style="fill:url(#linearGradientF8FBFEEDF5FCDEEDFAD4E7F8E2E5E9_72123175);" stroke="191970" /></g><g componentSequence="17"><text x="743" y="191" text-anchor="middle" style="font-weight:bold;font-size:10px;stroke:none; fill:#333399"><tspan dy="14" x="743">Reservar</tspan><tspan dy="14" x="743">Viagem</tspan></text></g><g sequence="19"><polygon points=" 580 303 610 273 640 303 610 333 580 303" style="fill:url(#linearGradientFAFBFCFFFFCC_2131942615);" stroke="000000" /></g><g componentSequence="19"><text x="610" y="343" text-anchor="middle" style="font-weight:bold;font-size:10px;stroke:none; fill:#333399"><tspan dy="14" x="610">Adianta</tspan><tspan dy="14" x="610">mento?</tspan></text></g><g sequence="20"><polygon points=" 590 425 620 395 650 425 620 455 590 425" style="fill:url(#linearGradientFAFBFCFFFFCC_1427901886);" stroke="000000" /></g><g componentSequence="20"><text x="620" y="465" text-anchor="middle" style="font-weight:bold;font-size:10px;stroke:none; fill:#333399"><tspan dy="14" x="620">Veiculo</tspan><tspan dy="14" x="620">?</tspan></text></g><g sequence="23"><rect x="690" y="281" width="106" height="92" ry="5" rx="5" style="fill:url(#linearGradientF8FBFEEDF5FCDEEDFAD4E7F8E2E5E9_1841190643);" stroke="191970" /></g><g componentSequence="23"><text x="743" y="296" text-anchor="middle" style="font-weight:bold;font-size:10px;stroke:none; fill:#333399"><tspan dy="14" x="743">Liberar</tspan><tspan dy="14" x="743">Adiantamento</tspan></text></g><g sequence="25"><rect x="690" y="411" width="106" height="76" ry="5" rx="5" style="fill:url(#linearGradientF8FBFEEDF5FCDEEDFAD4E7F8E2E5E9_218871256);" stroke="191970" /></g><g componentSequence="25"><text x="743" y="426" text-anchor="middle" style="font-weight:bold;font-size:10px;stroke:none; fill:#333399"><tspan dy="14" x="743">Liberar</tspan><tspan dy="14" x="743">Veiculo</tspan></text></g><g sequence="27"><polygon points=" 850 198 880 168 910 198 880 228 850 198" style="fill:url(#linearGradientFAFBFCFFFFCC_1679176906);" stroke="000000" /></g><path style="fill:none; stroke-width:6; stroke:#000000;" d="M870.0 198.0 L890.0 198.0" /><path style="fill:none; stroke-width:6; stroke:#000000;" d="M880.0 188.0 L880.0 208.0" /><g componentSequence="27"><text x="880" y="233" text-anchor="middle" style="font-weight:bold;font-size:10px;stroke:none; fill:#333399"><tspan dy="14" x="880">Join</tspan></text></g><g sequence="31"><rect x="1160" y="37" width="106" height="92" ry="5" rx="5" style="fill:url(#linearGradientF8FBFEEDF5FCDEEDFAD4E7F8E2E5E9_1364374539);" stroke="191970" /></g><g componentSequence="31"><text x="1213" y="52" text-anchor="middle" style="font-weight:bold;font-size:10px;stroke:none; fill:#333399"><tspan dy="14" x="1213">Gerar</tspan><tspan dy="14" x="1213">Acerto/Reem</tspan><tspan dy="14" x="1213">bolso</tspan></text></g><g sequence="33"><rect x="1280" y="281" width="106" height="92" ry="5" rx="5" style="fill:url(#linearGradientF8FBFEEDF5FCDEEDFAD4E7F8E2E5E9_1321498908);" stroke="191970" /></g><g componentSequence="33"><text x="1333" y="296" text-anchor="middle" style="font-weight:bold;font-size:10px;stroke:none; fill:#333399"><tspan dy="14" x="1333">Reembolsar/</tspan><tspan dy="14" x="1333">Baixa</tspan><tspan dy="14" x="1333">Financeira</tspan></text></g><g sequence="39"><rect x="1280" y="533" width="106" height="76" ry="5" rx="5" style="fill:url(#linearGradientF8FBFEEDF5FCDEEDFAD4E7F8E2E5E9_514961513);" stroke="191970" /></g><g componentSequence="39"><text x="1333" y="548" text-anchor="middle" style="font-weight:bold;font-size:10px;stroke:none; fill:#333399"><tspan dy="14" x="1333">Aprovar</tspan><tspan dy="14" x="1333">Reembolso</tspan></text></g><g sequence="41"><polygon points=" 1420 547 1450 517 1480 547 1450 577 1420 547" style="fill:url(#linearGradientFAFBFCFFFFCC_1272211217);" stroke="000000" /></g><g componentSequence="41"><text x="1450" y="587" text-anchor="middle" style="font-weight:bold;font-size:10px;stroke:none; fill:#333399"><tspan dy="14" x="1450">Aprova</tspan><tspan dy="14" x="1450">?</tspan></text></g><g sequence="46"><rect x="1540" y="270" width="106" height="108" ry="5" rx="5" style="fill:url(#linearGradientF8FBFEEDF5FCDEEDFAD4E7F8E2E5E9_266494092);" stroke="191970" /></g><g componentSequence="46"><text x="1593" y="285" text-anchor="middle" style="font-weight:bold;font-size:10px;stroke:none; fill:#333399"><tspan dy="14" x="1593">Efetuar</tspan><tspan dy="14" x="1593">Reembolso/B</tspan><tspan dy="14" x="1593">aixa</tspan><tspan dy="14" x="1593">Financeira</tspan></text></g><g sequence="48"><ellipse cx="1717" cy="323" rx="17" ry="17" stroke-width="3" style="fill:url(#linearGradientFF6666FF9696FFB6B6_1644426485);" stroke="993333" /></g><g sequence="52"><polygon points=" 263 58 293 28 323 58 293 88 263 58" style="fill:url(#linearGradientFAFBFCFFFFCC_1906450980);" stroke="000000" /></g><g componentSequence="52"><text x="293" y="98" text-anchor="middle" style="font-weight:bold;font-size:10px;stroke:none; fill:#333399"><tspan dy="14" x="293">Necess</tspan><tspan dy="14" x="293">ita</tspan><tspan dy="14" x="293">Apr...</tspan></text></g><g sequence="56"><rect x="960" y="533" width="106" height="76" ry="5" rx="5" style="fill:url(#linearGradientF8FBFEEDF5FCDEEDFAD4E7F8E2E5E9_421933038);" stroke="191970" /></g><g componentSequence="56"><text x="1013" y="548" text-anchor="middle" style="font-weight:bold;font-size:10px;stroke:none; fill:#333399"><tspan dy="14" x="1013">Aprovar</tspan><tspan dy="14" x="1013">Cotação</tspan></text></g><g sequence="59"><polygon points=" 1110 547 1140 517 1170 547 1140 577 1110 547" style="fill:url(#linearGradientFAFBFCFFFFCC_98355782);" stroke="000000" /></g><g componentSequence="59"><text x="1140" y="587" text-anchor="middle" style="font-weight:bold;font-size:10px;stroke:none; fill:#333399"><tspan dy="14" x="1140">Aprova</tspan><tspan dy="14" x="1140">?</tspan></text></g><g sequence="61"><ellipse cx="1245" cy="570" rx="17" ry="17" stroke-width="3" style="fill:url(#linearGradientFF6666FF9696FFB6B6_2021995092);" stroke="993333" /></g><g componentSequence="11"><text x="383" y="571" style="font-size:10px;font-weight:none;stroke:none; fill:#333399" text-anchor="left" /></g><g componentSequence="13"><text x="525" y="571" style="font-size:10px;font-weight:none;stroke:none; fill:#333399" text-anchor="left"><tspan dy="14" x="525">Não</tspan></text></g><g componentSequence="16"><text x="440" y="325" style="font-size:10px;font-weight:none;stroke:none; fill:#333399" text-anchor="left" /></g><g componentSequence="18"><text x="640" y="214" style="font-size:10px;font-weight:none;stroke:none; fill:#333399" text-anchor="left" /></g><g componentSequence="21"><text x="550" y="382" style="font-size:10px;font-weight:none;stroke:none; fill:#333399" text-anchor="left" /></g><g componentSequence="22"><text x="550" y="316" style="font-size:10px;font-weight:none;stroke:none; fill:#333399" text-anchor="left" /></g><g componentSequence="24"><text x="675" y="327" style="font-size:10px;font-weight:none;stroke:none; fill:#333399" text-anchor="left" /></g><g componentSequence="26"><text x="680" y="449" style="font-size:10px;font-weight:none;stroke:none; fill:#333399" text-anchor="left" /></g><g componentSequence="28"><text x="833" y="214" style="font-size:10px;font-weight:none;stroke:none; fill:#333399" text-anchor="left" /></g><g componentSequence="29"><text x="890" y="396" style="font-size:10px;font-weight:none;stroke:none; fill:#333399" text-anchor="left" /></g><g componentSequence="30"><text x="881" y="326" style="font-size:10px;font-weight:none;stroke:none; fill:#333399" text-anchor="left" /></g><g componentSequence="34"><text x="1222" y="262" style="font-size:10px;font-weight:none;stroke:none; fill:#333399" text-anchor="left" /></g><g componentSequence="37"><text x="775" y="280" style="font-size:10px;font-weight:none;stroke:none; fill:#333399" text-anchor="left" /></g><g componentSequence="38"><text x="841" y="401" style="font-size:10px;font-weight:none;stroke:none; fill:#333399" text-anchor="left" /></g><g componentSequence="40"><text x="1343" y="453" style="font-size:10px;font-weight:none;stroke:none; fill:#333399" text-anchor="left" /></g><g componentSequence="42"><text x="1413" y="571" style="font-size:10px;font-weight:none;stroke:none; fill:#333399" text-anchor="left" /></g><g componentSequence="45"><text x="1459" y="208" style="font-size:10px;font-weight:none;stroke:none; fill:#333399" text-anchor="left" /></g><g componentSequence="47"><text x="1460" y="375" style="font-size:10px;font-weight:none;stroke:none; fill:#333399" text-anchor="left" /></g><g componentSequence="49"><text x="1683" y="323" style="font-size:10px;font-weight:none;stroke:none; fill:#333399" text-anchor="left" /></g><g componentSequence="50"><text x="1459" y="390" style="font-size:10px;font-weight:none;stroke:none; fill:#333399" text-anchor="left" /></g><g componentSequence="51"><text x="117" y="510" style="font-size:10px;font-weight:none;stroke:none; fill:#333399" text-anchor="left" /></g><g componentSequence="53"><text x="204" y="82" style="font-size:10px;font-weight:none;stroke:none; fill:#333399" text-anchor="left" /></g><g componentSequence="54"><text x="303" y="334" style="font-size:10px;font-weight:none;stroke:none; fill:#333399" text-anchor="left"><tspan dy="14" x="303">Sim</tspan></text></g><g componentSequence="55"><text x="480" y="82" style="font-size:10px;font-weight:none;stroke:none; fill:#333399" text-anchor="left"><tspan dy="14" x="480">Não</tspan></text></g><g componentSequence="57"><text x="941" y="394" style="font-size:10px;font-weight:none;stroke:none; fill:#333399" text-anchor="left" /></g><g componentSequence="60"><text x="1098" y="571" style="font-size:10px;font-weight:none;stroke:none; fill:#333399" text-anchor="left" /></g><g componentSequence="62"><text x="1190" y="570" style="font-size:10px;font-weight:none;stroke:none; fill:#333399" text-anchor="left"><tspan dy="14" x="1190">Não</tspan></text></g><g componentSequence="63"><text x="1149" y="286" style="font-size:10px;font-weight:none;stroke:none; fill:#333399" text-anchor="left"><tspan dy="14" x="1149">Sim</tspan></text></g><g componentSequence="64"><text x="363" y="616" style="font-size:10px;font-weight:none;stroke:none; fill:#333399" text-anchor="left" /></g><path style="fill:none; stroke:#000000;stroke-width:1" d="M125.0 82.0 L262.0 82.0" /><polygon style="fill:#000000; stroke:#000000;" points=" 252 77 262 82 252 87 254 82" /><path style="fill:none; stroke:#000000;stroke-width:1" d="M399.0 593.0 L363.0 619.0 L107.0 619.0 L107.0 100.0" /><polygon style="fill:#000000; stroke:#000000;" points=" 102 110 107 100 112 110 107 108" /><path style="fill:none; stroke:#000000;stroke-width:1" d="M1109.0 594.0 L1080.0 616.0 L131.0 616.0 L106.0 616.0 L107.0 99.0" /><polygon style="fill:#000000; stroke:#000000;" points=" 102 109 107 99 112 109 107 107" /><path style="fill:none; stroke:#000000;stroke-width:1" d="M346.0 571.0 L399.0 571.0" /><polygon style="fill:#000000; stroke:#000000;" points=" 389 566 399 571 389 576 391 571" /><path style="fill:none; stroke:#000000;stroke-width:1" d="M293.0 136.0 L293.0 532.0" /><polygon style="fill:#000000; stroke:#000000;" points=" 298 522 293 532 288 522 293 524" /><path style="fill:none; stroke:#000000;stroke-width:1" d="M460.0 571.0 L569.0 571.0" /><polygon style="fill:#000000; stroke:#000000;" points=" 559 566 569 571 559 576 561 571" /><path style="fill:none; stroke:#000000;stroke-width:1" d="M430.0 516.0 L430.0 354.0 L430.0 213.0 L509.0 213.0" /><polygon style="fill:#000000; stroke:#000000;" points=" 499 208 509 213 499 218 501 213" /><path style="fill:none; stroke:#000000;stroke-width:1" d="M570.0 214.0 L689.0 214.0" /><polygon style="fill:#000000; stroke:#000000;" points=" 679 209 689 214 679 219 681 214" /><path style="fill:none; stroke:#000000;stroke-width:1" d="M540.0 268.0 L540.0 447.0 L589.0 448.0" /><polygon style="fill:#000000; stroke:#000000;" points=" 579 443 589 448 579 453 581 448" /><path style="fill:none; stroke:#000000;stroke-width:1" d="M540.0 268.0 L540.0 325.0 L579.0 326.0" /><polygon style="fill:#000000; stroke:#000000;" points=" 569 321 579 326 569 331 571 326" /><path style="fill:none; stroke:#000000;stroke-width:1" d="M323.0 82.0 L540.0 82.0 L540.0 159.0" /><polygon style="fill:#000000; stroke:#000000;" points=" 545 149 540 159 535 149 540 151" /><path style="fill:none; stroke:#000000;stroke-width:1" d="M796.0 214.0 L849.0 214.0" /><polygon style="fill:#000000; stroke:#000000;" points=" 839 209 849 214 839 219 841 214" /><path style="fill:none; stroke:#000000;stroke-width:1" d="M640.0 327.0 L689.0 327.0" /><polygon style="fill:#000000; stroke:#000000;" points=" 679 322 689 327 679 332 681 327" /><path style="fill:none; stroke:#000000;stroke-width:1" d="M640.0 309.0 L689.0 280.0 L830.0 280.0 L878.0 280.0 L878.0 260.0" /><polygon style="fill:#000000; stroke:#000000;" points=" 873 270 878 260 883 270 878 268" /><path style="fill:none; stroke:#000000;stroke-width:1" d="M650.0 449.0 L689.0 449.0" /><polygon style="fill:#000000; stroke:#000000;" points=" 679 444 689 449 679 454 681 449" /><path style="fill:none; stroke:#000000;stroke-width:1" d="M650.0 428.0 L690.0 401.0 L880.0 401.0 L880.0 260.0" /><polygon style="fill:#000000; stroke:#000000;" points=" 875 270 880 260 885 270 880 268" /><path style="fill:none; stroke:#000000;stroke-width:1" d="M796.0 326.0 L880.0 326.0 L880.0 260.0" /><polygon style="fill:#000000; stroke:#000000;" points=" 875 270 880 260 885 270 880 268" /><path style="fill:none; stroke:#000000;stroke-width:1" d="M796.0 448.0 L880.0 448.0 L880.0 260.0" /><polygon style="fill:#000000; stroke:#000000;" points=" 875 270 880 260 885 270 880 268" /><path style="fill:none; stroke:#000000;stroke-width:1" d="M910.0 212.0 L931.0 211.0 L931.0 570.0 L959.0 570.0" /><polygon style="fill:#000000; stroke:#000000;" points=" 949 565 959 570 949 575 951 570" /><path style="fill:none; stroke:#000000;stroke-width:1" d="M1212.0 129.0 L1212.0 327.0 L1279.0 327.0" /><polygon style="fill:#000000; stroke:#000000;" points=" 1269 322 1279 327 1269 332 1271 327" /><path style="fill:none; stroke:#000000;stroke-width:1" d="M1449.0 516.0 L1449.0 83.0 L1266.0 83.0" /><polygon style="fill:#000000; stroke:#000000;" points=" 1276 88 1266 83 1276 78 1274 83" /><path style="fill:none; stroke:#000000;stroke-width:1" d="M1139.0 516.0 L1139.0 77.0 L1159.0 78.0" /><polygon style="fill:#000000; stroke:#000000;" points=" 1149 73 1159 78 1149 82 1151 78" /><path style="fill:none; stroke:#000000;stroke-width:1" d="M1333.0 373.0 L1333.0 532.0" /><polygon style="fill:#000000; stroke:#000000;" points=" 1338 522 1333 532 1328 522 1333 524" /><path style="fill:none; stroke:#000000;stroke-width:1" d="M1449.0 516.0 L1449.0 326.0 L1386.0 326.0" /><polygon style="fill:#000000; stroke:#000000;" points=" 1396 331 1386 326 1396 321 1394 326" /><path style="fill:none; stroke:#000000;stroke-width:1" d="M1386.0 571.0 L1419.0 571.0" /><polygon style="fill:#000000; stroke:#000000;" points=" 1409 566 1419 571 1409 576 1411 571" /><path style="fill:none; stroke:#000000;stroke-width:1" d="M1450.0 516.0 L1450.0 323.0 L1539.0 323.0" /><polygon style="fill:#000000; stroke:#000000;" points=" 1529 318 1539 323 1529 328 1531 323" /><path style="fill:none; stroke:#000000;stroke-width:1" d="M1646.0 323.0 L1700.0 323.0" /><polygon style="fill:#000000; stroke:#000000;" points=" 1690 318 1700 323 1690 328 1692 323" /><path style="fill:none; stroke:#000000;stroke-width:1" d="M1066.0 571.0 L1109.0 571.0" /><polygon style="fill:#000000; stroke:#000000;" points=" 1099 566 1109 571 1099 576 1101 571" /><path style="fill:none; stroke:#000000;stroke-width:1" d="M1170.0 570.0 L1228.0 570.0" /><polygon style="fill:#000000; stroke:#000000;" points=" 1218 565 1228 570 1218 575 1220 570" /><defs><linearGradient xmlns:xlink="http://www.w3.org/1999/xlink" xlink:href="#linearGradient66FF6696FF96B6FFB6" id="linearGradient66FF6696FF96B6FFB6_2059999715" x1="0" y1="65.0" x2="0" y2="100.0" gradientUnits="userSpaceOnUse" xlink:type="simple" xlink:actuate="onLoad" xlink:show="other" /><linearGradient id="linearGradient66FF6696FF96B6FFB6"><stop style="stop-color:#66FF66;stop-opacity:1;" offset="0.0" id="stop66FF66" /><stop style="stop-color:#96FF96;stop-opacity:1;" offset="0.5" id="stop96FF96" /><stop style="stop-color:#B6FFB6;stop-opacity:1;" offset="1.0" id="stopB6FFB6" /></linearGradient><linearGradient xmlns:xlink="http://www.w3.org/1999/xlink" xlink:href="#linearGradientF8FBFEEDF5FCDEEDFAD4E7F8E2E5E9" id="linearGradientF8FBFEEDF5FCDEEDFAD4E7F8E2E5E9_1947138250" x1="0" y1="533.0" x2="0" y2="639.0" gradientUnits="userSpaceOnUse" xlink:type="simple" xlink:actuate="onLoad" xlink:show="other" /><linearGradient id="linearGradientF8FBFEEDF5FCDEEDFAD4E7F8E2E5E9"><stop style="stop-color:#F8FBFE;stop-opacity:1;" offset="0.0" id="stopF8FBFE" /><stop style="stop-color:#EDF5FC;stop-opacity:1;" offset="0.25" id="stopEDF5FC" /><stop style="stop-color:#DEEDFA;stop-opacity:1;" offset="0.5" id="stopDEEDFA" /><stop style="stop-color:#D4E7F8;stop-opacity:1;" offset="0.75" id="stopD4E7F8" /><stop style="stop-color:#E2E5E9;stop-opacity:1;" offset="1.0" id="stopE2E5E9" /></linearGradient><linearGradient xmlns:xlink="http://www.w3.org/1999/xlink" xlink:href="#linearGradientFAFBFCFFFFCC" id="linearGradientFAFBFCFFFFCC_1882288787" x1="0" y1="517.0" x2="0" y2="577.0" gradientUnits="userSpaceOnUse" xlink:type="simple" xlink:actuate="onLoad" xlink:show="other" /><linearGradient id="linearGradientFAFBFCFFFFCC"><stop style="stop-color:#FAFBFC;stop-opacity:1;" offset="0.0" id="stopFAFBFC" /><stop style="stop-color:#FFFFCC;stop-opacity:1;" offset="1.0" id="stopFFFFCC" /></linearGradient><linearGradient xmlns:xlink="http://www.w3.org/1999/xlink" xlink:href="#linearGradientFF6666FF9696FFB6B6" id="linearGradientFF6666FF9696FFB6B6_892596977" x1="0" y1="554.0" x2="0" y2="589.0" gradientUnits="userSpaceOnUse" xlink:type="simple" xlink:actuate="onLoad" xlink:show="other" /><linearGradient id="linearGradientFF6666FF9696FFB6B6"><stop style="stop-color:#FF6666;stop-opacity:1;" offset="0.0" id="stopFF6666" /><stop style="stop-color:#FF9696;stop-opacity:1;" offset="0.5" id="stopFF9696" /><stop style="stop-color:#FFB6B6;stop-opacity:1;" offset="1.0" id="stopFFB6B6" /></linearGradient><linearGradient xmlns:xlink="http://www.w3.org/1999/xlink" xlink:href="#linearGradientFAFBFCFFFFCC" id="linearGradientFAFBFCFFFFCC_126350261" x1="0" y1="160.0" x2="0" y2="220.0" gradientUnits="userSpaceOnUse" xlink:type="simple" xlink:actuate="onLoad" xlink:show="other" /><linearGradient xmlns:xlink="http://www.w3.org/1999/xlink" xlink:href="#linearGradientF8FBFEEDF5FCDEEDFAD4E7F8E2E5E9" id="linearGradientF8FBFEEDF5FCDEEDFAD4E7F8E2E5E9_72123175" x1="0" y1="176.0" x2="0" y2="282.0" gradientUnits="userSpaceOnUse" xlink:type="simple" xlink:actuate="onLoad" xlink:show="other" /><linearGradient xmlns:xlink="http://www.w3.org/1999/xlink" xlink:href="#linearGradientFAFBFCFFFFCC" id="linearGradientFAFBFCFFFFCC_2131942615" x1="0" y1="273.0" x2="0" y2="333.0" gradientUnits="userSpaceOnUse" xlink:type="simple" xlink:actuate="onLoad" xlink:show="other" /><linearGradient xmlns:xlink="http://www.w3.org/1999/xlink" xlink:href="#linearGradientFAFBFCFFFFCC" id="linearGradientFAFBFCFFFFCC_1427901886" x1="0" y1="395.0" x2="0" y2="455.0" gradientUnits="userSpaceOnUse" xlink:type="simple" xlink:actuate="onLoad" xlink:show="other" /><linearGradient xmlns:xlink="http://www.w3.org/1999/xlink" xlink:href="#linearGradientF8FBFEEDF5FCDEEDFAD4E7F8E2E5E9" id="linearGradientF8FBFEEDF5FCDEEDFAD4E7F8E2E5E9_1841190643" x1="0" y1="281.0" x2="0" y2="387.0" gradientUnits="userSpaceOnUse" xlink:type="simple" xlink:actuate="onLoad" xlink:show="other" /><linearGradient xmlns:xlink="http://www.w3.org/1999/xlink" xlink:href="#linearGradientF8FBFEEDF5FCDEEDFAD4E7F8E2E5E9" id="linearGradientF8FBFEEDF5FCDEEDFAD4E7F8E2E5E9_218871256" x1="0" y1="411.0" x2="0" y2="517.0" gradientUnits="userSpaceOnUse" xlink:type="simple" xlink:actuate="onLoad" xlink:show="other" /><linearGradient xmlns:xlink="http://www.w3.org/1999/xlink" xlink:href="#linearGradientFAFBFCFFFFCC" id="linearGradientFAFBFCFFFFCC_1679176906" x1="0" y1="168.0" x2="0" y2="228.0" gradientUnits="userSpaceOnUse" xlink:type="simple" xlink:actuate="onLoad" xlink:show="other" /><linearGradient xmlns:xlink="http://www.w3.org/1999/xlink" xlink:href="#linearGradientF8FBFEEDF5FCDEEDFAD4E7F8E2E5E9" id="linearGradientF8FBFEEDF5FCDEEDFAD4E7F8E2E5E9_1364374539" x1="0" y1="37.0" x2="0" y2="143.0" gradientUnits="userSpaceOnUse" xlink:type="simple" xlink:actuate="onLoad" xlink:show="other" /><linearGradient xmlns:xlink="http://www.w3.org/1999/xlink" xlink:href="#linearGradientF8FBFEEDF5FCDEEDFAD4E7F8E2E5E9" id="linearGradientF8FBFEEDF5FCDEEDFAD4E7F8E2E5E9_1321498908" x1="0" y1="281.0" x2="0" y2="387.0" gradientUnits="userSpaceOnUse" xlink:type="simple" xlink:actuate="onLoad" xlink:show="other" /><linearGradient xmlns:xlink="http://www.w3.org/1999/xlink" xlink:href="#linearGradientF8FBFEEDF5FCDEEDFAD4E7F8E2E5E9" id="linearGradientF8FBFEEDF5FCDEEDFAD4E7F8E2E5E9_514961513" x1="0" y1="533.0" x2="0" y2="639.0" gradientUnits="userSpaceOnUse" xlink:type="simple" xlink:actuate="onLoad" xlink:show="other" /><linearGradient xmlns:xlink="http://www.w3.org/1999/xlink" xlink:href="#linearGradientFAFBFCFFFFCC" id="linearGradientFAFBFCFFFFCC_1272211217" x1="0" y1="517.0" x2="0" y2="577.0" gradientUnits="userSpaceOnUse" xlink:type="simple" xlink:actuate="onLoad" xlink:show="other" /><linearGradient xmlns:xlink="http://www.w3.org/1999/xlink" xlink:href="#linearGradientF8FBFEEDF5FCDEEDFAD4E7F8E2E5E9" id="linearGradientF8FBFEEDF5FCDEEDFAD4E7F8E2E5E9_266494092" x1="0" y1="270.0" x2="0" y2="376.0" gradientUnits="userSpaceOnUse" xlink:type="simple" xlink:actuate="onLoad" xlink:show="other" /><linearGradient xmlns:xlink="http://www.w3.org/1999/xlink" xlink:href="#linearGradientFF6666FF9696FFB6B6" id="linearGradientFF6666FF9696FFB6B6_1644426485" x1="0" y1="306.0" x2="0" y2="341.0" gradientUnits="userSpaceOnUse" xlink:type="simple" xlink:actuate="onLoad" xlink:show="other" /><linearGradient xmlns:xlink="http://www.w3.org/1999/xlink" xlink:href="#linearGradientFAFBFCFFFFCC" id="linearGradientFAFBFCFFFFCC_1906450980" x1="0" y1="28.0" x2="0" y2="88.0" gradientUnits="userSpaceOnUse" xlink:type="simple" xlink:actuate="onLoad" xlink:show="other" /><linearGradient xmlns:xlink="http://www.w3.org/1999/xlink" xlink:href="#linearGradientF8FBFEEDF5FCDEEDFAD4E7F8E2E5E9" id="linearGradientF8FBFEEDF5FCDEEDFAD4E7F8E2E5E9_421933038" x1="0" y1="533.0" x2="0" y2="639.0" gradientUnits="userSpaceOnUse" xlink:type="simple" xlink:actuate="onLoad" xlink:show="other" /><linearGradient xmlns:xlink="http://www.w3.org/1999/xlink" xlink:href="#linearGradientFAFBFCFFFFCC" id="linearGradientFAFBFCFFFFCC_98355782" x1="0" y1="517.0" x2="0" y2="577.0" gradientUnits="userSpaceOnUse" xlink:type="simple" xlink:actuate="onLoad" xlink:show="other" /><linearGradient xmlns:xlink="http://www.w3.org/1999/xlink" xlink:href="#linearGradientFF6666FF9696FFB6B6" id="linearGradientFF6666FF9696FFB6B6_2021995092" x1="0" y1="553.0" x2="0" y2="588.0" gradientUnits="userSpaceOnUse" xlink:type="simple" xlink:actuate="onLoad" xlink:show="other" /></defs></svg>
